<?xml version="1.0" encoding="UTF-8" standalone="no"?>
<svg
   xmlns:dc="http://purl.org/dc/elements/1.1/"
   xmlns:cc="http://creativecommons.org/ns#"
   xmlns:rdf="http://www.w3.org/1999/02/22-rdf-syntax-ns#"
   xmlns:svg="http://www.w3.org/2000/svg"
   xmlns="http://www.w3.org/2000/svg"
   id="svg8"
   version="1.1"
   viewBox="0 0 58.208332 13.229167"
   height="50"
   width="220">
  <defs
     id="defs2" />
  <metadata
     id="metadata5">
    <rdf:RDF>
      <cc:Work
         rdf:about="">
        <dc:format>image/svg+xml</dc:format>
        <dc:type
           rdf:resource="http://purl.org/dc/dcmitype/StillImage" />
        <dc:title></dc:title>
      </cc:Work>
    </rdf:RDF>
  </metadata>
  <g
     transform="translate(0,-283.77082)"
     id="layer1">
    <g
       style="fill:#000000"
       transform="matrix(1.078885,0,0,1.078885,-2.4566683,-24.029604)"
       id="g949">
      <g
         id="g933"
         style="fill:#000000">
        <path
           d="m 5.0726329,290.89948 c 0.5745027,-0.16414 1.0164278,-0.70708 1.0164278,-1.3384 0,-0.7639 -0.6250084,-1.38891 -1.3889075,-1.38891 H 2.8061884 c 0,0.55557 0.4545515,1.01012 1.0101145,1.01012 h 0.8838503 c 0.2083361,0 0.3787929,0.17045 0.3787929,0.37879 0,0.20834 -0.1704568,0.37879 -0.3787929,0.37879 H 2.8061884 v 1.7677 c 0,0.55556 0.4545515,1.01011 1.0101145,1.01011 v -1.64774 l 1.3510283,1.34471 c 0.3914194,0.39773 1.0290542,0.39773 1.4267868,0 z"
           style="font-style:normal;font-variant:normal;font-weight:normal;font-stretch:normal;font-size:medium;line-height:1.25;font-family:'Magmawave Caps';-inkscape-font-specification:'Magmawave Caps';letter-spacing:0px;word-spacing:0px;fill:#000000;fill-opacity:1;stroke:none;stroke-width:0.1578304"
           id="path882" />
        <path
           d="m 8.9739047,291.70757 c -0.1830833,0 -0.3535402,-0.0379 -0.5050573,-0.10732 -0.290408,-0.12626 -0.523997,-0.35986 -0.6565745,-0.65026 h 0.7765256 c 0.555563,0 1.0101146,-0.45456 1.0101146,-1.01012 H 7.8122729 c 0.1957097,-0.44824 0.643948,-0.75758 1.1616318,-0.75758 h 0.4608647 0.075759 c 0.5366226,-0.019 0.9722346,-0.46087 0.9722346,-1.01012 0,0 0,0 0,0 H 8.9739047 c -0.1767701,0 -0.3472269,0.0189 -0.5113706,0.0568 -0.5745026,0.13258 -1.0606203,0.47981 -1.3825943,0.9533 -0.2399022,0.35985 -0.3787929,0.79546 -0.3787929,1.26264 0,0.46718 0.1388907,0.90279 0.3787929,1.26264 0.4103591,0.61238 1.1048128,1.01011 1.8939649,1.01011 h 0.498744 c 0.5555633,0 1.0101143,-0.45455 1.0101143,-1.01011 z"
           style="font-style:normal;font-variant:normal;font-weight:normal;font-stretch:normal;font-size:medium;line-height:1.25;font-family:'Magmawave Caps';-inkscape-font-specification:'Magmawave Caps';letter-spacing:0px;word-spacing:0px;fill:#000000;fill-opacity:1;stroke:none;stroke-width:0.1578304"
           id="path884" />
        <path
           d="m 14.76924,288.17217 c -0.555563,0 -1.010115,0.45455 -1.010115,1.01012 v 1.45835 l -2.007602,-2.11493 c -0.183084,-0.21465 -0.460865,-0.35354 -0.770213,-0.35354 v 4.54551 c 0.555563,0 1.010115,-0.45455 1.010115,-1.01011 v -1.45835 l 1.994976,2.09599 c 0.183083,0.22727 0.467178,0.37247 0.782839,0.37247 z"
           style="font-style:normal;font-variant:normal;font-weight:normal;font-stretch:normal;font-size:medium;line-height:1.25;font-family:'Magmawave Caps';-inkscape-font-specification:'Magmawave Caps';letter-spacing:0px;word-spacing:0px;fill:#000000;fill-opacity:1;stroke:none;stroke-width:0.1578304"
           id="path886" />
        <path
           d="m 17.288607,288.17217 -2.272757,4.54551 h 1.502545 c 0.555563,0 1.010114,-0.45455 1.010114,-1.01011 h -0.852284 l 0.612382,-1.27527 0.92173,1.84977 c 0.13889,0.25885 0.486118,0.43561 0.833344,0.43561 h 0.517684 z"
           style="font-style:normal;font-variant:normal;font-weight:normal;font-stretch:normal;font-size:medium;line-height:1.25;font-family:'Magmawave Caps';-inkscape-font-specification:'Magmawave Caps';letter-spacing:0px;word-spacing:0px;fill:#000000;fill-opacity:1;stroke:none;stroke-width:0.1578304"
           id="path888" />
        <path
           d="m 23.573217,288.17217 c -0.555563,0 -1.010115,0.45455 -1.010115,1.01012 v 1.45835 L 20.5555,288.52571 c -0.183083,-0.21465 -0.460865,-0.35354 -0.770212,-0.35354 v 4.54551 c 0.555562,0 1.010114,-0.45455 1.010114,-1.01011 v -1.45835 l 1.994976,2.09599 c 0.183084,0.22727 0.467178,0.37247 0.782839,0.37247 z"
           style="font-style:normal;font-variant:normal;font-weight:normal;font-stretch:normal;font-size:medium;line-height:1.25;font-family:'Magmawave Caps';-inkscape-font-specification:'Magmawave Caps';letter-spacing:0px;word-spacing:0px;fill:#000000;fill-opacity:1;stroke:none;stroke-width:0.1578304"
           id="path890" />
      </g>
      <g
         id="g926"
         transform="translate(-1.0583333)"
         style="fill:#000000">
        <path
           d="m 30.391982,290.43862 c 0,-0.46718 -0.145204,-0.89648 -0.385106,-1.26265 -0.404046,-0.60607 -1.098499,-1.0038 -1.887651,-1.0038 -0.17677,0 -0.340914,0.0189 -0.505058,0.0568 -0.385106,0.0821 -0.72602,0.26515 -1.010114,0.51769 v 2.70205 c 0.555563,0 1.010114,-0.44824 1.010114,-1.01011 v -1.15532 c 0.151517,-0.0631 0.321974,-0.10101 0.505058,-0.10101 0.694454,0 1.262643,0.56187 1.262643,1.25633 0,0.006 0,0.006 0,0.006 0,0.68183 -0.542937,1.23739 -1.218451,1.25633 h -0.54925 c -0.542936,0 -1.010114,0.45455 -1.010114,1.01012 0,0 1.553051,0.006 1.571991,0 0.151517,0 0.303034,-0.0189 0.448238,-0.0505 0.574503,-0.13258 1.066933,-0.4798 1.382594,-0.95961 0.246216,-0.35985 0.385106,-0.78915 0.385106,-1.25633 0,0 0,0 0,-0.006 z"
           style="font-style:normal;font-variant:normal;font-weight:normal;font-stretch:normal;font-size:medium;line-height:1.25;font-family:'Magmawave Caps';-inkscape-font-specification:'Magmawave Caps';letter-spacing:0px;word-spacing:0px;fill:#000000;fill-opacity:1;stroke:none;stroke-width:0.1578304"
           id="path892" />
        <path
           d="m 33.067701,291.70757 c -0.183083,0 -0.35354,-0.0379 -0.505057,-0.10732 -0.290408,-0.12626 -0.523997,-0.35986 -0.656575,-0.65026 h 0.776526 c 0.555563,0 1.010114,-0.45456 1.010114,-1.01012 h -1.78664 c 0.19571,-0.44824 0.643948,-0.75758 1.161632,-0.75758 h 0.460865 0.07576 c 0.536623,-0.019 0.972235,-0.46087 0.972235,-1.01012 0,0 0,0 0,0 h -1.508859 c -0.17677,0 -0.347227,0.0189 -0.511371,0.0568 -0.574502,0.13258 -1.06062,0.47981 -1.382594,0.9533 -0.239902,0.35985 -0.378793,0.79546 -0.378793,1.26264 0,0.46718 0.138891,0.90279 0.378793,1.26264 0.410359,0.61238 1.104813,1.01011 1.893965,1.01011 h 0.498744 c 0.555563,0 1.010115,-0.45455 1.010115,-1.01011 z"
           style="font-style:normal;font-variant:normal;font-weight:normal;font-stretch:normal;font-size:medium;line-height:1.25;font-family:'Magmawave Caps';-inkscape-font-specification:'Magmawave Caps';letter-spacing:0px;word-spacing:0px;fill:#000000;fill-opacity:1;stroke:none;stroke-width:0.1578304"
           id="path894" />
        <path
           d="m 36.085221,291.70757 v -3.5354 c -0.555563,0 -1.010114,0.45455 -1.010114,1.01012 v 3.53539 h 2.626297 c 0.555564,0 1.010115,-0.45455 1.010115,-1.01011 z"
           style="font-style:normal;font-variant:normal;font-weight:normal;font-stretch:normal;font-size:medium;line-height:1.25;font-family:'Magmawave Caps';-inkscape-font-specification:'Magmawave Caps';letter-spacing:0px;word-spacing:0px;fill:#000000;fill-opacity:1;stroke:none;stroke-width:0.1578304"
           id="path896" />
        <path
           d="m 42.794986,289.93987 h -1.010114 c -0.555563,0 -1.010115,0.45456 -1.010115,1.01012 h 1.010115 v 0.65026 c -0.151517,0.0694 -0.321974,0.10732 -0.505058,0.10732 -0.694454,0 -1.262643,-0.56188 -1.262643,-1.26264 0,0 0,0 0,0 0,-0.68183 0.542937,-1.23739 1.218451,-1.26264 h 0.54925 c 0.542936,0 1.010114,-0.45455 1.010114,-1.01012 0,0 -1.553051,0 -1.57199,0 -0.157831,0.006 -0.303035,0.0252 -0.448239,0.0568 -0.574503,0.13258 -1.066933,0.47981 -1.382594,0.9533 -0.246216,0.35985 -0.385106,0.79546 -0.385106,1.26264 0,0 0,0 0,0 0,0.46718 0.13889,0.90279 0.385106,1.26264 0.404046,0.61238 1.098499,1.01011 1.887651,1.01011 0.17677,0 0.340914,-0.0189 0.505058,-0.0568 0.385106,-0.0884 0.72602,-0.27147 1.010114,-0.524 z"
           style="font-style:normal;font-variant:normal;font-weight:normal;font-stretch:normal;font-size:medium;line-height:1.25;font-family:'Magmawave Caps';-inkscape-font-specification:'Magmawave Caps';letter-spacing:0px;word-spacing:0px;fill:#000000;fill-opacity:1;stroke:none;stroke-width:0.1578304"
           id="path898" />
        <path
           d="m 45.42681,288.17217 -2.272758,4.54551 h 1.502546 c 0.555562,0 1.010114,-0.45455 1.010114,-1.01011 h -0.852284 l 0.612382,-1.27527 0.921729,1.84977 c 0.138891,0.25885 0.486118,0.43561 0.833345,0.43561 h 0.517683 z"
           style="font-style:normal;font-variant:normal;font-weight:normal;font-stretch:normal;font-size:medium;line-height:1.25;font-family:'Magmawave Caps';-inkscape-font-specification:'Magmawave Caps';letter-spacing:0px;word-spacing:0px;fill:#000000;fill-opacity:1;stroke:none;stroke-width:0.1578304"
           id="path900" />
        <path
           d="m 51.810062,290.43862 c 0,-0.46718 -0.145204,-0.89648 -0.385106,-1.26265 -0.404047,-0.60607 -1.0985,-1.0038 -1.887652,-1.0038 -0.17677,0 -0.340914,0.0189 -0.505057,0.0568 -0.385107,0.0821 -0.72602,0.26515 -1.010115,0.51769 v 2.70205 c 0.555563,0 1.010115,-0.44824 1.010115,-1.01011 v -1.15532 c 0.151517,-0.0631 0.321974,-0.10101 0.505057,-0.10101 0.694454,0 1.262643,0.56187 1.262643,1.25633 0,0.006 0,0.006 0,0.006 0,0.68183 -0.542936,1.23739 -1.21845,1.25633 h -0.54925 c -0.542937,0 -1.010115,0.45455 -1.010115,1.01012 0,0 1.553051,0.006 1.571991,0 0.151517,0 0.303034,-0.0189 0.448238,-0.0505 0.574503,-0.13258 1.066934,-0.4798 1.382595,-0.95961 0.246215,-0.35985 0.385106,-0.78915 0.385106,-1.25633 0,0 0,0 0,-0.006 z"
           style="font-style:normal;font-variant:normal;font-weight:normal;font-stretch:normal;font-size:medium;line-height:1.25;font-family:'Magmawave Caps';-inkscape-font-specification:'Magmawave Caps';letter-spacing:0px;word-spacing:0px;fill:#000000;fill-opacity:1;stroke:none;stroke-width:0.1578304"
           id="path902" />
        <path
           d="m 54.48578,288.17217 c -1.25633,0 -2.272757,1.01643 -2.272757,2.27276 0,1.25633 1.016427,2.27275 2.272757,2.27275 1.256331,0 2.272758,-1.01642 2.272758,-2.27275 0,-1.25633 -1.016427,-2.27276 -2.272758,-2.27276 z m 0,3.5354 c -0.700766,0 -1.262643,-0.56188 -1.262643,-1.26264 0,-0.69445 0.561877,-1.26264 1.262643,-1.26264 0.694454,0 1.262644,0.56819 1.262644,1.26264 0,0.70076 -0.56819,1.26264 -1.262644,1.26264 z"
           style="font-style:normal;font-variant:normal;font-weight:normal;font-stretch:normal;font-size:medium;line-height:1.25;font-family:'Magmawave Caps';-inkscape-font-specification:'Magmawave Caps';letter-spacing:0px;word-spacing:0px;fill:#000000;fill-opacity:1;stroke:none;stroke-width:0.1578304"
           id="path904" />
      </g>
    </g>
    <g
       transform="matrix(0.88676029,0,0,0.88676029,3.2957462,33.353172)"
       id="text953"
       style="font-style:normal;font-weight:normal;font-size:10.58333302px;line-height:1.25;font-family:sans-serif;letter-spacing:0px;word-spacing:0px;fill:#000000;fill-opacity:1;stroke:none;stroke-width:0.26458332"
       aria-label="wellcome to internet of things">
      <path
         id="path955"
         style="font-style:normal;font-variant:normal;font-weight:normal;font-stretch:normal;font-size:3.88055563px;font-family:Euphemia;-inkscape-font-specification:Euphemia;stroke-width:0.26458332;fill:#000000"
         d="m 2.8412561,293.54599 h 0.3221164 l 0.413067,1.58784 0.4149618,-1.58784 h 0.1932698 l 0.441489,1.58216 0.3960137,-1.58216 h 0.3221165 l -0.6158109,2.04639 H 4.5181564 L 4.089931,293.9799 3.6787588,295.59238 H 3.4684357 Z" />
      <path
         id="path957"
         style="font-style:normal;font-variant:normal;font-weight:normal;font-stretch:normal;font-size:3.88055563px;font-family:Euphemia;-inkscape-font-specification:Euphemia;stroke-width:0.26458332;fill:#000000"
         d="m 6.4716979,293.74873 q -0.2671672,0 -0.4035929,0.1838 -0.1364258,0.1819 -0.1458998,0.41307 h 1.0629842 q -0.00758,-0.24443 -0.1212674,-0.42065 -0.1136881,-0.17622 -0.3922241,-0.17622 z m 0.8526612,1.47795 q -0.134531,0.17811 -0.3278009,0.2899 -0.191375,0.1099 -0.5021227,0.1099 -0.4016981,0 -0.6461276,-0.28422 -0.2444296,-0.28611 -0.2444296,-0.80529 0,-0.45286 0.2216919,-0.73708 0.2216919,-0.28611 0.6499173,-0.28611 0.3619073,0 0.5722304,0.19895 0.2103231,0.19896 0.2368503,0.55518 0.011369,0.13453 0.00568,0.28233 h -1.371837 q 0,0.33916 0.1553738,0.58359 0.1553738,0.24254 0.4244357,0.24254 0.1951647,0 0.3410645,-0.0815 0.1458998,-0.0815 0.269062,-0.24253 z" />
      <path
         id="path959"
         style="font-style:normal;font-variant:normal;font-weight:normal;font-stretch:normal;font-size:3.88055563px;font-family:Euphemia;-inkscape-font-specification:Euphemia;stroke-width:0.26458332;fill:#000000"
         d="m 7.8207976,292.62322 h 0.2993788 v 2.55041 q 0,0.11558 0.045475,0.15726 0.045475,0.0417 0.1591634,0.0417 0.015158,0 0.04358,-0.002 0.030317,-0.002 0.060634,-0.006 l 0.04358,0.17432 q -0.034107,0.0152 -0.075792,0.0303 -0.041686,0.0152 -0.087161,0.0265 -0.045475,0.0133 -0.090951,0.0189 -0.045475,0.008 -0.085266,0.008 -0.1477946,0 -0.2311659,-0.0947 -0.081476,-0.0947 -0.081476,-0.28232 z" />
      <path
         id="path961"
         style="font-style:normal;font-variant:normal;font-weight:normal;font-stretch:normal;font-size:3.88055563px;font-family:Euphemia;-inkscape-font-specification:Euphemia;stroke-width:0.26458332;fill:#000000"
         d="m 8.7833573,292.62322 h 0.2993788 v 2.55041 q 0,0.11558 0.045475,0.15726 0.045475,0.0417 0.1591634,0.0417 0.015158,0 0.04358,-0.002 0.030317,-0.002 0.060634,-0.006 l 0.04358,0.17432 q -0.034107,0.0152 -0.075792,0.0303 -0.041686,0.0152 -0.087161,0.0265 -0.045475,0.0133 -0.090951,0.0189 -0.045475,0.008 -0.085266,0.008 -0.1477946,0 -0.2311659,-0.0947 -0.081476,-0.0947 -0.081476,-0.28232 z" />
      <path
         id="path963"
         style="font-style:normal;font-variant:normal;font-weight:normal;font-stretch:normal;font-size:3.88055563px;font-family:Euphemia;-inkscape-font-specification:Euphemia;stroke-width:0.26458332;fill:#000000"
         d="m 11.34892,295.2551 q -0.113688,0.16864 -0.303168,0.26906 -0.187586,0.0985 -0.460437,0.0985 -0.424436,0 -0.676445,-0.29559 -0.2501139,-0.29748 -0.2501139,-0.7655 0,-0.45475 0.2520087,-0.75034 0.2539032,-0.29748 0.6821292,-0.29748 0.248219,0 0.411172,0.072 0.164848,0.072 0.280431,0.20085 l -0.195165,0.17622 q -0.111793,-0.12317 -0.225481,-0.17622 -0.113689,-0.053 -0.267168,-0.053 -0.293694,0 -0.458542,0.22548 -0.1648477,0.22358 -0.1648477,0.57223 0,0.36001 0.1743217,0.61391 0.176217,0.25391 0.447174,0.25391 0.231165,0 0.342959,-0.072 0.113688,-0.0739 0.217902,-0.216 z" />
      <path
         id="path965"
         style="font-style:normal;font-variant:normal;font-weight:normal;font-stretch:normal;font-size:3.88055563px;font-family:Euphemia;-inkscape-font-specification:Euphemia;stroke-width:0.26458332;fill:#000000"
         d="m 12.688546,295.38584 q 0.157268,0 0.274746,-0.0739 0.117478,-0.0739 0.233061,-0.26717 0.117478,-0.19327 0.117478,-0.52486 0,-0.28991 -0.161059,-0.52676 -0.159163,-0.23874 -0.468016,-0.23874 -0.308853,0 -0.47749,0.22737 -0.166743,0.22738 -0.166743,0.59497 0,0.31454 0.119373,0.48886 0.121267,0.17432 0.242535,0.24822 0.123162,0.072 0.286115,0.072 z m 0.01326,0.24064 q -0.48128,0 -0.727604,-0.29748 -0.246324,-0.29748 -0.246324,-0.78824 0,-0.43959 0.263377,-0.73329 0.263378,-0.29369 0.701077,-0.29369 0.447174,0 0.689708,0.30506 0.24443,0.30506 0.24443,0.75982 0,0.43201 -0.255798,0.74087 -0.255799,0.30695 -0.668866,0.30695 z" />
      <path
         id="path967"
         style="font-style:normal;font-variant:normal;font-weight:normal;font-stretch:normal;font-size:3.88055563px;font-family:Euphemia;-inkscape-font-specification:Euphemia;stroke-width:0.26458332;fill:#000000"
         d="m 14.42229,293.54599 q 0.01326,0.0625 0.02274,0.19706 0.138321,-0.0947 0.297484,-0.16106 0.161058,-0.0682 0.365697,-0.0682 0.126952,0 0.24443,0.0493 0.119372,0.0493 0.210323,0.18001 0.375171,-0.22927 0.716235,-0.22927 0.144005,0 0.250114,0.0493 0.108004,0.0474 0.176217,0.13264 0.07011,0.0834 0.104214,0.19895 0.03411,0.11369 0.03411,0.24443 v 1.45332 h -0.299379 v -1.42489 q 0,-0.10422 -0.02842,-0.18001 -0.02653,-0.0777 -0.07579,-0.12885 -0.04926,-0.0512 -0.115583,-0.0758 -0.06632,-0.0246 -0.14211,-0.0246 -0.274746,0 -0.536229,0.14021 0.02463,0.1118 0.02463,0.24633 v 1.44763 h -0.299378 v -1.42111 q 0,-0.21221 -0.09474,-0.31264 -0.09285,-0.10042 -0.242534,-0.10042 -0.125057,0 -0.284221,0.0549 -0.159163,0.0531 -0.289904,0.13453 v 1.64469 h -0.299379 v -1.80764 q -0.0038,-0.13075 -0.01705,-0.23875 z" />
      <path
         id="path969"
         style="font-style:normal;font-variant:normal;font-weight:normal;font-stretch:normal;font-size:3.88055563px;font-family:Euphemia;-inkscape-font-specification:Euphemia;stroke-width:0.26458332;fill:#000000"
         d="m 18.211894,293.74873 q -0.267167,0 -0.403593,0.1838 -0.136425,0.1819 -0.145899,0.41307 h 1.062984 q -0.0076,-0.24443 -0.121267,-0.42065 -0.113689,-0.17622 -0.392225,-0.17622 z m 0.852662,1.47795 q -0.134531,0.17811 -0.327801,0.2899 -0.191375,0.1099 -0.502123,0.1099 -0.401698,0 -0.646128,-0.28422 -0.244429,-0.28611 -0.244429,-0.80529 0,-0.45286 0.221692,-0.73708 0.221692,-0.28611 0.649917,-0.28611 0.361907,0 0.57223,0.19895 0.210323,0.19896 0.236851,0.55518 0.01137,0.13453 0.0057,0.28233 h -1.371837 q 0,0.33916 0.155374,0.58359 0.155374,0.24254 0.424436,0.24254 0.195164,0 0.341064,-0.0815 0.1459,-0.0815 0.269062,-0.24253 z" />
      <path
         id="path971"
         style="font-style:normal;font-variant:normal;font-weight:normal;font-stretch:normal;font-size:3.88055563px;font-family:Euphemia;-inkscape-font-specification:Euphemia;stroke-width:0.26458332;fill:#000000"
         d="m 20.483763,293.54599 h 0.295589 v -0.51728 h 0.299379 v 0.51728 h 0.498333 l -0.03221,0.25959 h -0.466121 v 1.18235 q 0,0.17622 0.05684,0.28233 0.05874,0.10611 0.181901,0.10611 0.06632,0 0.166743,-0.019 0.100424,-0.0208 0.132636,-0.0303 l 0.02274,0.25959 q -0.0379,0.008 -0.161058,0.0227 -0.121267,0.0171 -0.191375,0.0171 -0.24064,0 -0.375171,-0.11937 -0.132636,-0.11937 -0.132636,-0.44149 v -1.26004 h -0.295589 z" />
      <path
         id="path973"
         style="font-style:normal;font-variant:normal;font-weight:normal;font-stretch:normal;font-size:3.88055563px;font-family:Euphemia;-inkscape-font-specification:Euphemia;stroke-width:0.26458332;fill:#000000"
         d="m 22.943217,295.38584 q 0.157268,0 0.274746,-0.0739 0.117478,-0.0739 0.233061,-0.26717 0.117478,-0.19327 0.117478,-0.52486 0,-0.28991 -0.161059,-0.52676 -0.159163,-0.23874 -0.468016,-0.23874 -0.308853,0 -0.47749,0.22737 -0.166743,0.22738 -0.166743,0.59497 0,0.31454 0.119373,0.48886 0.121267,0.17432 0.242535,0.24822 0.123162,0.072 0.286115,0.072 z m 0.01326,0.24064 q -0.481279,0 -0.727604,-0.29748 -0.246324,-0.29748 -0.246324,-0.78824 0,-0.43959 0.263377,-0.73329 0.263378,-0.29369 0.701077,-0.29369 0.447174,0 0.689709,0.30506 0.244429,0.30506 0.244429,0.75982 0,0.43201 -0.255798,0.74087 -0.255799,0.30695 -0.668866,0.30695 z" />
      <path
         id="path975"
         style="font-style:normal;font-variant:normal;font-weight:normal;font-stretch:normal;font-size:3.88055563px;font-family:Euphemia;-inkscape-font-specification:Euphemia;stroke-width:0.26458332;fill:#000000"
         d="m 25.590257,293.54599 h 0.299378 v 2.04639 h -0.299378 z m -0.03032,-0.66318 q 0,-0.0682 0.04926,-0.12506 0.04926,-0.0568 0.130741,-0.0568 0.07958,0 0.126952,0.0568 0.04927,0.0568 0.04927,0.12506 0,0.0777 -0.05306,0.13074 -0.05305,0.0512 -0.123162,0.0512 -0.072,0 -0.126952,-0.0512 -0.05305,-0.053 -0.05305,-0.13074 z" />
      <path
         id="path977"
         style="font-style:normal;font-variant:normal;font-weight:normal;font-stretch:normal;font-size:3.88055563px;font-family:Euphemia;-inkscape-font-specification:Euphemia;stroke-width:0.26458332;fill:#000000"
         d="m 26.509234,293.80937 q 0,-0.12316 -0.01705,-0.26338 h 0.278536 q 0.01705,0.0834 0.02274,0.19706 0.134531,-0.0985 0.306958,-0.16295 0.174322,-0.0663 0.369486,-0.0663 0.320222,0 0.488859,0.16864 0.170533,0.16863 0.170533,0.47938 v 1.43058 h -0.299379 v -1.38131 q 0,-0.20843 -0.09285,-0.3297 -0.09095,-0.12316 -0.291799,-0.12316 -0.161058,0 -0.333485,0.053 -0.172427,0.0531 -0.303169,0.13643 v 1.64469 h -0.299379 z" />
      <path
         id="path979"
         style="font-style:normal;font-variant:normal;font-weight:normal;font-stretch:normal;font-size:3.88055563px;font-family:Euphemia;-inkscape-font-specification:Euphemia;stroke-width:0.26458332;fill:#000000"
         d="m 28.46467,293.54599 h 0.295589 v -0.51728 h 0.299379 v 0.51728 h 0.498333 l -0.03221,0.25959 h -0.466122 v 1.18235 q 0,0.17622 0.05684,0.28233 0.05874,0.10611 0.181901,0.10611 0.06632,0 0.166743,-0.019 0.100425,-0.0208 0.132636,-0.0303 l 0.02274,0.25959 q -0.0379,0.008 -0.161058,0.0227 -0.121268,0.0171 -0.191375,0.0171 -0.24064,0 -0.375171,-0.11937 -0.132637,-0.11937 -0.132637,-0.44149 v -1.26004 H 28.46467 Z" />
      <path
         id="path981"
         style="font-style:normal;font-variant:normal;font-weight:normal;font-stretch:normal;font-size:3.88055563px;font-family:Euphemia;-inkscape-font-specification:Euphemia;stroke-width:0.26458332;fill:#000000"
         d="m 30.81612,293.74873 q -0.267167,0 -0.403592,0.1838 -0.136426,0.1819 -0.1459,0.41307 h 1.062984 q -0.0076,-0.24443 -0.121267,-0.42065 -0.113689,-0.17622 -0.392225,-0.17622 z m 0.852662,1.47795 q -0.134531,0.17811 -0.327801,0.2899 -0.191375,0.1099 -0.502123,0.1099 -0.401698,0 -0.646128,-0.28422 -0.244429,-0.28611 -0.244429,-0.80529 0,-0.45286 0.221692,-0.73708 0.221692,-0.28611 0.649917,-0.28611 0.361907,0 0.57223,0.19895 0.210324,0.19896 0.236851,0.55518 0.01137,0.13453 0.0057,0.28233 h -1.371837 q 0,0.33916 0.155374,0.58359 0.155374,0.24254 0.424436,0.24254 0.195164,0 0.341064,-0.0815 0.1459,-0.0815 0.269062,-0.24253 z" />
      <path
         id="path983"
         style="font-style:normal;font-variant:normal;font-weight:normal;font-stretch:normal;font-size:3.88055563px;font-family:Euphemia;-inkscape-font-specification:Euphemia;stroke-width:0.26458332;fill:#000000"
         d="m 32.434282,293.54599 q 0.01326,0.0493 0.01895,0.13264 0.0076,0.0815 0.0076,0.21411 0.1459,-0.17432 0.341065,-0.27664 0.197059,-0.10232 0.409277,-0.10232 0.02463,0 0.05116,0.004 0.02842,0.004 0.04169,0.008 l -0.06442,0.31264 q -0.05684,-0.0152 -0.144005,-0.0152 -0.252009,0 -0.418751,0.11369 -0.166743,0.11369 -0.214113,0.22359 v 1.43247 h -0.299379 v -1.76406 q -0.0038,-0.24443 -0.01137,-0.28233 z" />
      <path
         id="path985"
         style="font-style:normal;font-variant:normal;font-weight:normal;font-stretch:normal;font-size:3.88055563px;font-family:Euphemia;-inkscape-font-specification:Euphemia;stroke-width:0.26458332;fill:#000000"
         d="m 33.610955,293.80937 q 0,-0.12316 -0.01705,-0.26338 h 0.278536 q 0.01705,0.0834 0.02274,0.19706 0.134531,-0.0985 0.306958,-0.16295 0.174321,-0.0663 0.369486,-0.0663 0.320222,0 0.488859,0.16864 0.170532,0.16863 0.170532,0.47938 v 1.43058 h -0.299378 v -1.38131 q 0,-0.20843 -0.09285,-0.3297 -0.09095,-0.12316 -0.291799,-0.12316 -0.161059,0 -0.333486,0.053 -0.172427,0.0531 -0.303168,0.13643 v 1.64469 h -0.299379 z" />
      <path
         id="path987"
         style="font-style:normal;font-variant:normal;font-weight:normal;font-stretch:normal;font-size:3.88055563px;font-family:Euphemia;-inkscape-font-specification:Euphemia;stroke-width:0.26458332;fill:#000000"
         d="m 36.599057,293.74873 q -0.267168,0 -0.403593,0.1838 -0.136426,0.1819 -0.1459,0.41307 h 1.062984 q -0.0076,-0.24443 -0.121267,-0.42065 -0.113688,-0.17622 -0.392224,-0.17622 z m 0.852661,1.47795 q -0.134531,0.17811 -0.327801,0.2899 -0.191375,0.1099 -0.502123,0.1099 -0.401698,0 -0.646127,-0.28422 -0.24443,-0.28611 -0.24443,-0.80529 0,-0.45286 0.221692,-0.73708 0.221692,-0.28611 0.649917,-0.28611 0.361907,0 0.572231,0.19895 0.210323,0.19896 0.23685,0.55518 0.01137,0.13453 0.0057,0.28233 H 36.04579 q 0,0.33916 0.155374,0.58359 0.155374,0.24254 0.424436,0.24254 0.195164,0 0.341064,-0.0815 0.1459,-0.0815 0.269062,-0.24253 z" />
      <path
         id="path989"
         style="font-style:normal;font-variant:normal;font-weight:normal;font-stretch:normal;font-size:3.88055563px;font-family:Euphemia;-inkscape-font-specification:Euphemia;stroke-width:0.26458332;fill:#000000"
         d="m 37.711306,293.54599 h 0.295589 v -0.51728 h 0.299379 v 0.51728 h 0.498333 l -0.03221,0.25959 h -0.466121 v 1.18235 q 0,0.17622 0.05684,0.28233 0.05874,0.10611 0.181901,0.10611 0.06632,0 0.166742,-0.019 0.100425,-0.0208 0.132637,-0.0303 l 0.02274,0.25959 q -0.0379,0.008 -0.161058,0.0227 -0.121267,0.0171 -0.191375,0.0171 -0.24064,0 -0.375171,-0.11937 -0.132636,-0.11937 -0.132636,-0.44149 v -1.26004 h -0.295589 z" />
      <path
         id="path991"
         style="font-style:normal;font-variant:normal;font-weight:normal;font-stretch:normal;font-size:3.88055563px;font-family:Euphemia;-inkscape-font-specification:Euphemia;stroke-width:0.26458332;fill:#000000"
         d="m 41.330382,295.38584 q 0.157268,0 0.274746,-0.0739 0.117478,-0.0739 0.233061,-0.26717 0.117478,-0.19327 0.117478,-0.52486 0,-0.28991 -0.161059,-0.52676 -0.159163,-0.23874 -0.468016,-0.23874 -0.308853,0 -0.47749,0.22737 -0.166743,0.22738 -0.166743,0.59497 0,0.31454 0.119373,0.48886 0.121267,0.17432 0.242535,0.24822 0.123162,0.072 0.286115,0.072 z m 0.01326,0.24064 q -0.481279,0 -0.727604,-0.29748 -0.246324,-0.29748 -0.246324,-0.78824 0,-0.43959 0.263378,-0.73329 0.263377,-0.29369 0.701076,-0.29369 0.447174,0 0.689709,0.30506 0.244429,0.30506 0.244429,0.75982 0,0.43201 -0.255798,0.74087 -0.255799,0.30695 -0.668866,0.30695 z" />
      <path
         id="path993"
         style="font-style:normal;font-variant:normal;font-weight:normal;font-stretch:normal;font-size:3.88055563px;font-family:Euphemia;-inkscape-font-specification:Euphemia;stroke-width:0.26458332;fill:#000000"
         d="m 42.859485,293.54599 v -0.15916 q 0,-0.39223 0.185691,-0.59118 0.187585,-0.19896 0.509702,-0.19896 0.117477,0 0.229271,0.0284 0.111793,0.0284 0.164848,0.0644 l -0.128847,0.25769 q -0.02842,-0.0208 -0.117478,-0.0606 -0.08716,-0.0417 -0.168637,-0.0417 -0.214113,0 -0.301274,0.11369 -0.04927,0.0606 -0.06253,0.20275 -0.01137,0.14211 -0.01137,0.38464 h 0.48128 l -0.02842,0.25201 h -0.452858 v 1.79438 H 42.859485 V 293.798 h -0.276641 v -0.25201 z" />
      <path
         id="path995"
         style="font-style:normal;font-variant:normal;font-weight:normal;font-stretch:normal;font-size:3.88055563px;font-family:Euphemia;-inkscape-font-specification:Euphemia;stroke-width:0.26458332;fill:#000000"
         d="m 44.911558,293.54599 h 0.295589 v -0.51728 h 0.299379 v 0.51728 h 0.498333 l -0.03221,0.25959 h -0.466122 v 1.18235 q 0,0.17622 0.05684,0.28233 0.05874,0.10611 0.181901,0.10611 0.06632,0 0.166743,-0.019 0.100425,-0.0208 0.132636,-0.0303 l 0.02274,0.25959 q -0.0379,0.008 -0.161058,0.0227 -0.121268,0.0171 -0.191375,0.0171 -0.24064,0 -0.375171,-0.11937 -0.132637,-0.11937 -0.132637,-0.44149 v -1.26004 h -0.295589 z" />
      <path
         id="path997"
         style="font-style:normal;font-variant:normal;font-weight:normal;font-stretch:normal;font-size:3.88055563px;font-family:Euphemia;-inkscape-font-specification:Euphemia;stroke-width:0.26458332;fill:#000000"
         d="m 46.470981,292.62322 h 0.299379 v 1.08004 q 0.102319,-0.0606 0.269062,-0.12506 0.168637,-0.0644 0.380855,-0.0644 0.322117,0 0.492649,0.18569 0.172427,0.18569 0.172427,0.50212 v 1.39079 h -0.299379 l 0.0019,-1.37374 q 0,-0.2179 -0.108004,-0.33916 -0.108004,-0.12127 -0.337275,-0.12127 -0.144005,0 -0.295589,0.0493 -0.151584,0.0493 -0.276641,0.11559 v 1.66932 h -0.299379 z" />
      <path
         id="path999"
         style="font-style:normal;font-variant:normal;font-weight:normal;font-stretch:normal;font-size:3.88055563px;font-family:Euphemia;-inkscape-font-specification:Euphemia;stroke-width:0.26458332;fill:#000000"
         d="m 48.691689,293.54599 h 0.299379 v 2.04639 h -0.299379 z m -0.03032,-0.66318 q 0,-0.0682 0.04926,-0.12506 0.04926,-0.0568 0.130742,-0.0568 0.07958,0 0.126952,0.0568 0.04926,0.0568 0.04926,0.12506 0,0.0777 -0.05305,0.13074 -0.05306,0.0512 -0.123162,0.0512 -0.072,0 -0.126952,-0.0512 -0.05305,-0.053 -0.05305,-0.13074 z" />
      <path
         id="path1001"
         style="font-style:normal;font-variant:normal;font-weight:normal;font-stretch:normal;font-size:3.88055563px;font-family:Euphemia;-inkscape-font-specification:Euphemia;stroke-width:0.26458332;fill:#000000"
         d="m 49.610669,293.80937 q 0,-0.12316 -0.01705,-0.26338 h 0.278536 q 0.01705,0.0834 0.02274,0.19706 0.134531,-0.0985 0.306958,-0.16295 0.174322,-0.0663 0.369487,-0.0663 0.320222,0 0.488859,0.16864 0.170532,0.16863 0.170532,0.47938 v 1.43058 h -0.299379 v -1.38131 q 0,-0.20843 -0.09284,-0.3297 -0.09095,-0.12316 -0.291799,-0.12316 -0.161059,0 -0.333486,0.053 -0.172427,0.0531 -0.303168,0.13643 v 1.64469 H 49.61068 Z" />
      <path
         id="path1003"
         style="font-style:normal;font-variant:normal;font-weight:normal;font-stretch:normal;font-size:3.88055563px;font-family:Euphemia;-inkscape-font-specification:Euphemia;stroke-width:0.26458332;fill:#000000"
         d="m 52.600665,294.73403 q 0.117478,0 0.198955,-0.0379 0.08337,-0.0398 0.136425,-0.1118 0.05306,-0.072 0.07579,-0.17243 0.02463,-0.10042 0.02463,-0.22358 0,-0.0928 -0.02653,-0.17811 -0.02653,-0.0872 -0.08148,-0.15159 -0.05305,-0.0644 -0.136426,-0.10232 -0.08337,-0.0398 -0.197059,-0.0398 -0.138321,0 -0.229271,0.0455 -0.09095,0.0436 -0.1459,0.11558 -0.05495,0.072 -0.07769,0.16295 -0.02274,0.091 -0.02274,0.1838 0,0.0947 0.02842,0.18569 0.03032,0.091 0.08906,0.16295 0.06063,0.072 0.14969,0.11748 0.09095,0.0436 0.214112,0.0436 z m -0.441489,0.77498 q -0.08527,0.0928 -0.132636,0.18569 -0.04547,0.0928 -0.04547,0.18 0,0.11559 0.04926,0.18948 0.04926,0.0758 0.126951,0.11938 0.07769,0.0436 0.174322,0.0606 0.09663,0.017 0.19327,0.017 0.05306,0 0.126952,-0.008 0.07579,-0.006 0.155374,-0.0208 0.08148,-0.0152 0.159163,-0.0417 0.07958,-0.0246 0.14211,-0.0625 0.06253,-0.0379 0.100425,-0.0909 0.03979,-0.0512 0.03979,-0.11938 0,-0.0663 -0.04169,-0.11937 -0.03979,-0.0512 -0.108004,-0.0909 -0.06632,-0.0398 -0.159163,-0.072 -0.09095,-0.0322 -0.312642,-0.0739 -0.147795,-0.0227 -0.231166,-0.0303 -0.08148,-0.009 -0.144005,-0.0133 -0.06253,-0.006 -0.09285,-0.009 z m 1.343415,-1.7148 q -0.07579,-0.002 -0.140215,0.008 -0.06442,0.009 -0.126952,0.0284 0.04737,0.072 0.07958,0.16485 0.03411,0.0909 0.03411,0.21411 0,0.18569 -0.06442,0.32212 -0.06442,0.13453 -0.172427,0.22358 -0.108004,0.0872 -0.248219,0.13075 -0.140216,0.0417 -0.2918,0.0417 -0.128846,0 -0.267167,-0.0322 -0.03032,0.004 -0.07769,0.0208 -0.04737,0.0171 -0.09285,0.0455 -0.04358,0.0284 -0.07579,0.0663 -0.03221,0.036 -0.03221,0.0796 0,0.0493 0.06632,0.0777 0.06632,0.0284 0.174322,0.0493 0.108004,0.019 0.38275,0.0568 0.289905,0.0474 0.426331,0.0872 0.13832,0.0379 0.246324,0.10232 0.108004,0.0644 0.174322,0.15727 0.06632,0.0947 0.06632,0.23117 0,0.13074 -0.04927,0.22548 -0.04926,0.0947 -0.132636,0.16106 -0.08148,0.0682 -0.18948,0.1099 -0.108004,0.0436 -0.227377,0.0682 -0.119372,0.0246 -0.242534,0.0322 -0.121268,0.009 -0.231166,0.009 -0.174322,0 -0.320222,-0.0303 -0.144005,-0.0303 -0.248219,-0.0947 -0.104214,-0.0625 -0.162953,-0.16106 -0.05874,-0.0966 -0.05874,-0.23117 0,-0.072 0.02463,-0.144 0.02653,-0.0701 0.07011,-0.13453 0.04547,-0.0644 0.10232,-0.11937 0.05874,-0.055 0.123162,-0.0985 -0.05116,-0.0246 -0.100425,-0.0512 -0.04926,-0.0284 -0.08906,-0.0625 -0.0379,-0.036 -0.06253,-0.0815 -0.02463,-0.0474 -0.02463,-0.1099 0,-0.0682 0.03979,-0.12505 0.04169,-0.0568 0.100425,-0.10232 0.06063,-0.0455 0.126952,-0.0758 0.06632,-0.0303 0.117477,-0.0436 -0.159163,-0.091 -0.240639,-0.23116 -0.08148,-0.14211 -0.08148,-0.35433 0,-0.17243 0.06821,-0.30506 0.07011,-0.13453 0.181901,-0.22359 0.111793,-0.0891 0.255798,-0.13453 0.144005,-0.0474 0.293695,-0.0474 0.130741,0 0.261482,0.036 0.130742,0.036 0.24443,0.108 0.147795,-0.0568 0.286115,-0.0796 0.140216,-0.0227 0.265273,-0.0227 l -0.03411,0.24254 z" />
      <path
         id="path1005"
         style="font-style:normal;font-variant:normal;font-weight:normal;font-stretch:normal;font-size:3.88055563px;font-family:Euphemia;-inkscape-font-specification:Euphemia;stroke-width:0.26458332;fill:#000000"
         d="m 53.99524,295.09783 q 0.128847,0.14022 0.265272,0.21791 0.136426,0.0777 0.34296,0.0777 0.208428,0 0.342959,-0.0872 0.134531,-0.089 0.134531,-0.24253 0,-0.10611 -0.06821,-0.1819 -0.06821,-0.0777 -0.274746,-0.15159 -0.07769,-0.0265 -0.305064,-0.10421 -0.214112,-0.0568 -0.401698,-0.19327 -0.187585,-0.13643 -0.187585,-0.38654 0,-0.23875 0.202744,-0.38465 0.202744,-0.14779 0.52486,-0.14779 0.113688,0 0.210323,0.0133 0.09853,0.0114 0.183796,0.0398 0.08716,0.0284 0.162953,0.0739 0.07769,0.0455 0.149689,0.11369 l -0.172427,0.20653 q -0.128846,-0.11179 -0.252008,-0.16295 -0.121268,-0.0512 -0.278536,-0.0512 -0.19327,0 -0.320222,0.072 -0.125057,0.072 -0.125057,0.21032 0,0.13264 0.117478,0.21222 0.117478,0.0777 0.278536,0.12506 0.08527,0.0265 0.168637,0.0549 0.08337,0.0284 0.168638,0.055 0.269062,0.0966 0.386539,0.22737 0.117478,0.13075 0.117478,0.34296 0,0.26528 -0.217902,0.42254 -0.217903,0.15727 -0.538124,0.15727 -0.250114,0 -0.443384,-0.0625 -0.191375,-0.0644 -0.371381,-0.25011 z" />
    </g>
  </g>
</svg>
